<svg width="43" height="33" viewBox="0 0 43 33" fill="none" xmlns="http://www.w3.org/2000/svg">
<path d="M2.21289 32.7246V30.332C5.59831 29.0951 8.2513 27.1419 10.1719 24.4727C12.0924 21.8359 13.0527 19.0853 13.0527 16.2207C13.0527 15.6022 12.9551 15.1465 12.7598 14.8535C12.6296 14.6582 12.4831 14.5605 12.3203 14.5605C12.1576 14.5605 11.9134 14.6745 11.5879 14.9023C10.5462 15.651 9.22786 16.0254 7.63281 16.0254C5.77734 16.0254 4.13346 15.2604 2.70117 13.7305C1.26888 12.2331 0.552734 10.4427 0.552734 8.35938C0.552734 6.17839 1.38281 4.25781 3.04297 2.59766C4.67057 0.9375 6.65625 0.107422 9 0.107422C11.7344 0.107422 14.0944 1.23047 16.0801 3.47656C18.0658 5.72266 19.0586 8.73372 19.0586 12.5098C19.0586 16.9043 17.7077 20.8431 15.0059 24.3262C12.304 27.8092 8.03971 30.6087 2.21289 32.7246ZM25.6992 32.7246V30.332C29.0846 29.0951 31.7376 27.1419 33.6582 24.4727C35.5788 21.8359 36.5391 19.0853 36.5391 16.2207C36.5391 15.6022 36.4414 15.1465 36.2461 14.8535C36.1159 14.6582 35.9694 14.5605 35.8066 14.5605C35.6439 14.5605 35.3997 14.6745 35.0742 14.9023C34.0326 15.651 32.7142 16.0254 31.1191 16.0254C29.2637 16.0254 27.6198 15.2604 26.1875 13.7305C24.7552 12.2331 24.0391 10.4427 24.0391 8.35938C24.0391 6.17839 24.8691 4.25781 26.5293 2.59766C28.1569 0.9375 30.1426 0.107422 32.4863 0.107422C35.2207 0.107422 37.5807 1.23047 39.5664 3.47656C41.5521 5.72266 42.5449 8.73372 42.5449 12.5098C42.5449 16.9043 41.194 20.8431 38.4922 24.3262C35.7904 27.8092 31.526 30.6087 25.6992 32.7246Z" fill="#3E3625"/>
</svg>
