<svg width="22" height="17" viewBox="0 0 22 17" fill="none" xmlns="http://www.w3.org/2000/svg">
<path d="M0.856445 16.8623V15.666C2.54915 15.0475 3.87565 14.071 4.83594 12.7363C5.79622 11.418 6.27637 10.0426 6.27637 8.61035C6.27637 8.30111 6.22754 8.07324 6.12988 7.92676C6.06478 7.8291 5.99154 7.78027 5.91016 7.78027C5.82878 7.78027 5.70671 7.83724 5.54395 7.95117C5.02311 8.32552 4.36393 8.5127 3.56641 8.5127C2.63867 8.5127 1.81673 8.13021 1.10059 7.36523C0.38444 6.61654 0.0263672 5.72135 0.0263672 4.67969C0.0263672 3.58919 0.441406 2.62891 1.27148 1.79883C2.08529 0.96875 3.07812 0.553711 4.25 0.553711C5.61719 0.553711 6.7972 1.11523 7.79004 2.23828C8.78288 3.36133 9.2793 4.86686 9.2793 6.75488C9.2793 8.95215 8.60384 10.9215 7.25293 12.6631C5.90202 14.4046 3.76986 15.8044 0.856445 16.8623ZM12.5996 16.8623V15.666C14.2923 15.0475 15.6188 14.071 16.5791 12.7363C17.5394 11.418 18.0195 10.0426 18.0195 8.61035C18.0195 8.30111 17.9707 8.07324 17.873 7.92676C17.8079 7.8291 17.7347 7.78027 17.6533 7.78027C17.5719 7.78027 17.4499 7.83724 17.2871 7.95117C16.7663 8.32552 16.1071 8.5127 15.3096 8.5127C14.3818 8.5127 13.5599 8.13021 12.8438 7.36523C12.1276 6.61654 11.7695 5.72135 11.7695 4.67969C11.7695 3.58919 12.1846 2.62891 13.0146 1.79883C13.8285 0.96875 14.8213 0.553711 15.9932 0.553711C17.3604 0.553711 18.5404 1.11523 19.5332 2.23828C20.526 3.36133 21.0225 4.86686 21.0225 6.75488C21.0225 8.95215 20.347 10.9215 18.9961 12.6631C17.6452 14.4046 15.513 15.8044 12.5996 16.8623Z" fill="#3E3625"/>
</svg>
