<svg width="22" height="17" viewBox="0 0 22 17" fill="none" xmlns="http://www.w3.org/2000/svg">
<path d="M20.8936 0.137695V1.33398C19.2008 1.95247 17.8743 2.92904 16.9141 4.26367C15.9538 5.58203 15.4736 6.95736 15.4736 8.38965C15.4736 8.69889 15.5225 8.92676 15.6201 9.07324C15.6852 9.1709 15.7585 9.21973 15.8398 9.21973C15.9212 9.21973 16.0433 9.16276 16.2061 9.04883C16.7269 8.67448 17.3861 8.4873 18.1836 8.4873C19.1113 8.4873 19.9333 8.86979 20.6494 9.63477C21.3656 10.3835 21.7236 11.2786 21.7236 12.3203C21.7236 13.4108 21.3086 14.3711 20.4785 15.2012C19.6647 16.0312 18.6719 16.4463 17.5 16.4463C16.1328 16.4463 14.9528 15.8848 13.96 14.7617C12.9671 13.6387 12.4707 12.1331 12.4707 10.2451C12.4707 8.04785 13.1462 6.07845 14.4971 4.33691C15.848 2.59538 17.9801 1.19564 20.8936 0.137695ZM9.15039 0.137695V1.33398C7.45768 1.95247 6.13118 2.92904 5.1709 4.26367C4.21061 5.58203 3.73047 6.95736 3.73047 8.38965C3.73047 8.69889 3.7793 8.92676 3.87695 9.07324C3.94206 9.1709 4.0153 9.21973 4.09668 9.21973C4.17806 9.21973 4.30013 9.16276 4.46289 9.04883C4.98372 8.67448 5.6429 8.4873 6.44043 8.4873C7.36816 8.4873 8.1901 8.86979 8.90625 9.63477C9.6224 10.3835 9.98047 11.2786 9.98047 12.3203C9.98047 13.4108 9.56543 14.3711 8.73535 15.2012C7.92155 16.0312 6.92871 16.4463 5.75684 16.4463C4.38965 16.4463 3.20964 15.8848 2.2168 14.7617C1.22396 13.6387 0.727539 12.1331 0.727539 10.2451C0.727539 8.04785 1.40299 6.07845 2.75391 4.33691C4.10482 2.59538 6.23698 1.19564 9.15039 0.137695Z" fill="#3E3625"/>
</svg>
