<svg width="30" height="30" viewBox="0 0 30 30" fill="none" xmlns="http://www.w3.org/2000/svg">
<path d="M16.875 1.25C15.3832 1.25 13.9524 1.84263 12.8975 2.89752C11.8426 3.95242 11.25 5.38316 11.25 6.875V11.25H8.125C7.95924 11.25 7.80027 11.3158 7.68306 11.4331C7.56585 11.5503 7.5 11.7092 7.5 11.875V16.875C7.5 17.0408 7.56585 17.1997 7.68306 17.3169C7.80027 17.4342 7.95924 17.5 8.125 17.5H11.25V28.125C11.25 28.2908 11.3158 28.4497 11.4331 28.5669C11.5503 28.6842 11.7092 28.75 11.875 28.75H16.875C17.0408 28.75 17.1997 28.6842 17.3169 28.5669C17.4342 28.4497 17.5 28.2908 17.5 28.125V17.5H20.625C20.7644 17.5 20.8998 17.4533 21.0097 17.3675C21.1195 17.2816 21.1975 17.1615 21.2313 17.0262L22.4813 12.0262C22.5042 11.9341 22.5059 11.838 22.4862 11.7451C22.4665 11.6523 22.4258 11.5651 22.3674 11.4903C22.309 11.4155 22.2343 11.355 22.1489 11.3133C22.0636 11.2717 21.9699 11.25 21.875 11.25H17.5V9.375C17.5 9.12877 17.5485 8.88495 17.6427 8.65747C17.737 8.42998 17.8751 8.22328 18.0492 8.04917C18.2233 7.87506 18.43 7.73695 18.6575 7.64273C18.885 7.5485 19.1288 7.5 19.375 7.5H21.875C22.0408 7.5 22.1997 7.43415 22.3169 7.31694C22.4342 7.19973 22.5 7.04076 22.5 6.875V1.875C22.5 1.70924 22.4342 1.55027 22.3169 1.43306C22.1997 1.31585 22.0408 1.25 21.875 1.25H16.875Z" fill="#F6F3E2"/>
</svg>
